<?xml version="1.0" encoding="UTF-8"?> <!-- Generator: Adobe Illustrator 21.1.0, SVG Export Plug-In . SVG Version: 6.00 Build 0) --> <svg xmlns="http://www.w3.org/2000/svg" xmlns:xlink="http://www.w3.org/1999/xlink" id="Layer_1" x="0px" y="0px" viewBox="0 0 124 27.4" style="enable-background:new 0 0 124 27.4;" xml:space="preserve"> <style type="text/css"> .st0{clip-path:url(#SVGID_2_);} .st1{fill:#2E435E;} .st2{clip-path:url(#SVGID_4_);} .st3{fill:#2D425D;} </style> <g> <defs> <rect id="SVGID_1_" x="-470" y="-2551" width="1440" height="5601"></rect> </defs> <clipPath id="SVGID_2_"> <use xlink:href="#SVGID_1_" style="overflow:visible;"></use> </clipPath> <g class="st0"> <text transform="matrix(1 0 0 1 -191 1104)" class="st1" style="font-family:'OpenSans-Regular'; font-size:24px;">auto</text> </g> <g class="st0"> <text transform="matrix(1 0 0 1 -139.9531 1104)" class="st1" style="font-family:'OpenSans-Bold'; font-size:24px;">Royal</text> </g> </g> <g> <defs> <rect id="SVGID_3_" x="-470" y="-2551" width="1440" height="5601"></rect> </defs> <clipPath id="SVGID_4_"> <use xlink:href="#SVGID_3_" style="overflow:visible;"></use> </clipPath> <g class="st2"> <text transform="matrix(1 0 0 1 -191 1104)" class="st1" style="font-family:'OpenSans-Regular'; font-size:24px;">auto</text> </g> <g class="st2"> <text transform="matrix(1 0 0 1 -139.9531 1104)" class="st1" style="font-family:'OpenSans-Bold'; font-size:24px;">Royal</text> </g> </g> <g> <path class="st3" d="M10,20.3l-0.4-1.8H9.5c-0.6,0.8-1.3,1.3-1.9,1.6s-1.4,0.4-2.4,0.4c-1.3,0-2.3-0.3-3-1S1.1,18,1.1,16.8 c0-2.6,2.1-4,6.2-4.1l2.2-0.1v-0.8c0-1-0.2-1.8-0.7-2.2S7.7,8.9,6.8,8.9c-1.1,0-2.3,0.3-3.6,1L2.5,8.4C3.2,8,3.9,7.7,4.6,7.5 s1.5-0.3,2.3-0.3c1.5,0,2.7,0.3,3.4,1s1.1,1.8,1.1,3.3v8.8H10z M5.6,18.9c1.2,0,2.2-0.3,2.9-1s1-1.6,1-2.8V14l-1.9,0.1 c-1.5,0.1-2.7,0.3-3.3,0.7s-1,1.1-1,2c0,0.7,0.2,1.2,0.6,1.6S4.8,18.9,5.6,18.9z"></path> <path class="st3" d="M17.2,7.5v8.3c0,1,0.2,1.8,0.7,2.3s1.2,0.8,2.2,0.8c1.3,0,2.3-0.4,2.9-1.1s0.9-1.9,0.9-3.6V7.5H26v12.8h-1.6 l-0.3-1.7H24c-0.4,0.6-1,1.1-1.7,1.5s-1.5,0.5-2.4,0.5c-1.6,0-2.7-0.4-3.5-1.1s-1.2-1.9-1.2-3.6V7.5H17.2z"></path> <path class="st3" d="M34.3,18.9c0.3,0,0.7,0,1-0.1s0.6-0.1,0.8-0.2v1.5c-0.2,0.1-0.5,0.2-0.9,0.3s-0.8,0.1-1.1,0.1 c-2.5,0-3.7-1.3-3.7-3.9V9h-1.8V8l1.8-0.8l0.8-2.7h1.1v3H36V9h-3.7v7.6c0,0.8,0.2,1.4,0.6,1.8S33.6,18.9,34.3,18.9z"></path> <path class="st3" d="M49.7,13.9c0,2.1-0.5,3.7-1.6,4.9s-2.5,1.8-4.4,1.8c-1.1,0-2.2-0.3-3.1-0.8s-1.6-1.3-2.1-2.3s-0.7-2.2-0.7-3.5 c0-2.1,0.5-3.7,1.6-4.9s2.5-1.8,4.4-1.8c1.8,0,3.2,0.6,4.3,1.8S49.7,11.8,49.7,13.9z M39.9,13.9c0,1.6,0.3,2.9,1,3.8 s1.6,1.3,2.9,1.3s2.2-0.4,2.9-1.3s1-2.1,1-3.8c0-1.6-0.3-2.9-1-3.7s-1.6-1.3-2.9-1.3c-1.3,0-2.2,0.4-2.9,1.3S39.9,12.2,39.9,13.9z"></path> <path class="st3" d="M56.8,13.7v6.6h-3.6V3.2h5c2.3,0,4.1,0.4,5.2,1.3S65,6.6,65,8.3c0,1-0.3,1.9-0.8,2.7s-1.3,1.4-2.4,1.8 c2.6,3.9,4.3,6.3,5,7.5h-4l-4.1-6.6H56.8z M56.8,10.8H58c1.1,0,2-0.2,2.5-0.6s0.8-1,0.8-1.8c0-0.8-0.3-1.4-0.8-1.7 s-1.4-0.5-2.6-0.5h-1.1V10.8z"></path> <path class="st3" d="M80.7,13.7c0,2.1-0.6,3.8-1.7,5s-2.7,1.8-4.7,1.8c-1.3,0-2.4-0.3-3.3-0.8s-1.7-1.3-2.2-2.4S68,15.1,68,13.7 c0-2.1,0.6-3.8,1.7-5S72.3,7,74.4,7c1.3,0,2.4,0.3,3.3,0.8s1.7,1.3,2.2,2.4S80.7,12.4,80.7,13.7z M71.6,13.7c0,1.3,0.2,2.3,0.6,2.9 s1.1,1,2.1,1c1,0,1.6-0.3,2.1-1S77,15,77,13.7c0-1.3-0.2-2.3-0.6-2.9s-1.1-1-2.1-1c-1,0-1.6,0.3-2.1,1S71.6,12.4,71.6,13.7z"></path> <path class="st3" d="M81.8,7.2h3.9l2.5,7.4c0.2,0.6,0.4,1.4,0.4,2.3h0.1c0.1-0.8,0.3-1.6,0.5-2.3l2.4-7.4h3.8L89.9,22 c-0.5,1.4-1.2,2.4-2.2,3.1s-2,1-3.3,1c-0.6,0-1.2-0.1-1.8-0.2V23c0.4,0.1,0.9,0.2,1.4,0.2c0.6,0,1.2-0.2,1.7-0.6s0.8-1,1.1-1.8 l0.2-0.6L81.8,7.2z"></path> <path class="st3" d="M105.6,20.3l-0.7-1.8h-0.1c-0.6,0.8-1.2,1.3-1.9,1.6s-1.5,0.4-2.5,0.4c-1.3,0-2.2-0.4-3-1.1s-1.1-1.7-1.1-3.1 c0-1.4,0.5-2.4,1.5-3.1s2.4-1,4.4-1.1l2.3-0.1v-0.6c0-1.3-0.7-2-2-2c-1,0-2.3,0.3-3.7,0.9l-1.2-2.4c1.5-0.8,3.2-1.2,5-1.2 c1.8,0,3.1,0.4,4,1.1s1.4,1.9,1.4,3.5v8.7H105.6z M104.5,14.2l-1.4,0c-1,0-1.8,0.2-2.3,0.6s-0.8,0.9-0.8,1.6c0,1,0.6,1.5,1.7,1.5 c0.8,0,1.5-0.2,2-0.7s0.7-1.1,0.7-1.9V14.2z"></path> <path class="st3" d="M115.3,20.3h-3.6V2.1h3.6V20.3z"></path> </g> </svg> 