<?xml version="1.0" encoding="utf-8"?>
<!-- Generator: Adobe Illustrator 21.1.0, SVG Export Plug-In . SVG Version: 6.00 Build 0)  -->
<svg version="1.1" xmlns="http://www.w3.org/2000/svg" xmlns:xlink="http://www.w3.org/1999/xlink" x="0px" y="0px"
	 width="399px" height="93px" viewBox="0 0 399 93.1" style="enable-background:new 0 0 399 93.1;" xml:space="preserve">
<style type="text/css">
	.st0{fill:#2C4CA0;}
	.st1{display:none;}
	.st2{display:inline;fill:#2C4CA0;}
</style>
<g id="Layer_1">
	<g>
		<path d="M130.7,66.9l-1-4.7h-0.2c-1.6,2-3.3,3.4-4.9,4.2c-1.6,0.7-3.6,1.1-6.1,1.1c-3.2,0-5.8-0.8-7.6-2.5s-2.8-4-2.8-7.1
			c0-6.6,5.3-10.1,15.8-10.4l5.5-0.2v-2c0-2.6-0.6-4.5-1.7-5.7s-2.9-1.8-5.3-1.8c-2.7,0-5.8,0.8-9.2,2.5l-1.5-3.8
			c1.6-0.9,3.4-1.6,5.3-2.1c1.9-0.5,3.8-0.7,5.8-0.7c3.9,0,6.8,0.9,8.7,2.6c1.9,1.7,2.8,4.5,2.8,8.3v22.3H130.7z M119.6,63.4
			c3.1,0,5.5-0.8,7.3-2.5s2.6-4.1,2.6-7.1v-3l-5,0.2c-3.9,0.1-6.8,0.8-8.5,1.8c-1.7,1.1-2.6,2.8-2.6,5.1c0,1.8,0.5,3.2,1.6,4.1
			C116.1,62.9,117.6,63.4,119.6,63.4z"/>
		<path d="M149.3,34.2v21.2c0,2.7,0.6,4.7,1.8,6c1.2,1.3,3.1,2,5.7,2c3.4,0,5.9-0.9,7.5-2.8c1.6-1.9,2.4-4.9,2.4-9.2V34.2h5v32.7
			h-4.1l-0.7-4.4h-0.3c-1,1.6-2.4,2.8-4.2,3.7c-1.8,0.9-3.9,1.3-6.2,1.3c-4,0-7-0.9-8.9-2.8c-2-1.9-3-4.9-3-9.1V34.2H149.3z"/>
		<path d="M192.7,63.4c0.9,0,1.7-0.1,2.5-0.2c0.8-0.1,1.5-0.3,1.9-0.4v3.8c-0.5,0.3-1.3,0.5-2.4,0.6c-1,0.2-2,0.3-2.8,0.3
			c-6.3,0-9.5-3.3-9.5-10V38h-4.7v-2.4l4.7-2.1l2.1-7h2.9v7.6h9.5V38h-9.5v19.2c0,2,0.5,3.5,1.4,4.5C189.7,62.9,191,63.4,192.7,63.4
			z"/>
		<path d="M231.9,50.5c0,5.3-1.3,9.5-4,12.5c-2.7,3-6.4,4.5-11.1,4.5c-2.9,0-5.5-0.7-7.8-2.1c-2.3-1.4-4-3.3-5.2-5.9
			c-1.2-2.6-1.8-5.6-1.8-9c0-5.3,1.3-9.5,4-12.5c2.7-3,6.4-4.5,11.1-4.5c4.6,0,8.2,1.5,10.9,4.6C230.5,41.2,231.9,45.3,231.9,50.5z
			 M207,50.5c0,4.2,0.8,7.4,2.5,9.5c1.7,2.2,4.1,3.3,7.4,3.3s5.7-1.1,7.4-3.3s2.5-5.4,2.5-9.6c0-4.2-0.8-7.3-2.5-9.5
			s-4.2-3.2-7.4-3.2c-3.2,0-5.7,1.1-7.3,3.2C207.8,43.1,207,46.3,207,50.5z"/>
		<path d="M250,50.1v16.7h-9.2V23.3h12.7c5.9,0,10.3,1.1,13.2,3.2c2.8,2.2,4.3,5.4,4.3,9.8c0,2.6-0.7,4.8-2.1,6.8
			c-1.4,2-3.4,3.6-6,4.7c6.6,9.8,10.8,16.1,12.8,19h-10.3l-10.4-16.7H250z M250,42.6h3c2.9,0,5.1-0.5,6.5-1.5c1.4-1,2.1-2.5,2.1-4.6
			c0-2.1-0.7-3.5-2.1-4.4c-1.4-0.9-3.6-1.3-6.6-1.3H250V42.6z"/>
		<path d="M310.7,50.1c0,5.4-1.4,9.7-4.3,12.7c-2.9,3.1-6.8,4.6-12,4.6c-3.2,0-6-0.7-8.5-2.1s-4.3-3.4-5.6-6c-1.3-2.6-2-5.7-2-9.2
			c0-5.4,1.4-9.7,4.3-12.7c2.8-3,6.8-4.5,12-4.5c3.2,0,6,0.7,8.5,2.1s4.3,3.4,5.6,6C310,43.6,310.7,46.6,310.7,50.1z M287.6,50.1
			c0,3.3,0.5,5.8,1.6,7.5c1.1,1.7,2.8,2.5,5.3,2.5c2.4,0,4.2-0.8,5.2-2.5c1.1-1.7,1.6-4.2,1.6-7.5c0-3.3-0.5-5.8-1.6-7.4
			c-1.1-1.6-2.8-2.5-5.3-2.5c-2.4,0-4.2,0.8-5.2,2.5C288.2,44.3,287.6,46.8,287.6,50.1z"/>
		<path d="M313.4,33.5h10l6.3,18.8c0.5,1.6,0.9,3.6,1.1,5.8h0.2c0.2-2,0.6-4,1.3-5.8l6.2-18.8h9.8l-14.1,37.6
			c-1.3,3.5-3.1,6.1-5.5,7.8s-5.2,2.6-8.4,2.6c-1.6,0-3.1-0.2-4.6-0.5v-7.2c1.1,0.3,2.3,0.4,3.6,0.4c1.6,0,3-0.5,4.2-1.5
			c1.2-1,2.1-2.5,2.8-4.5l0.5-1.6L313.4,33.5z"/>
		<path d="M374.1,66.9l-1.8-4.5h-0.2c-1.5,1.9-3.1,3.3-4.7,4c-1.6,0.7-3.7,1.1-6.3,1.1c-3.2,0-5.7-0.9-7.6-2.7
			c-1.8-1.8-2.8-4.4-2.8-7.8c0-3.5,1.2-6.1,3.7-7.8c2.5-1.7,6.2-2.6,11.2-2.8l5.8-0.2v-1.5c0-3.4-1.7-5.1-5.2-5.1
			c-2.7,0-5.8,0.8-9.4,2.4l-3-6.1c3.8-2,8.1-3,12.8-3c4.5,0,7.9,1,10.3,2.9c2.4,1.9,3.6,4.9,3.6,8.9v22.2H374.1z M371.4,51.4
			l-3.5,0.1c-2.6,0.1-4.6,0.6-5.9,1.4c-1.3,0.9-1.9,2.2-1.9,4c0,2.6,1.5,3.8,4.4,3.8c2.1,0,3.8-0.6,5.1-1.8c1.3-1.2,1.9-2.8,1.9-4.8
			V51.4z"/>
		<path d="M398.9,66.9h-9.1V20.5h9.1V66.9z"/>
	</g>
	<path class="st0" d="M76.5,21.5L44,2.7c-2.2-1.3-4.9-1.3-7,0L4.5,21.5C2.3,22.7,1,25,1,27.5V65c0,2.5,1.3,4.8,3.5,6.1L37,89.9
		c2.2,1.3,4.9,1.3,7,0l32.5-18.7c2.2-1.3,3.5-3.6,3.5-6.1V27.5C80,25,78.6,22.7,76.5,21.5z M61.5,62.8c0,0.8-0.7,1.5-1.5,1.5H21.1
		c-0.8,0-1.5-0.7-1.5-1.5v-3.6c0-0.8,0.7-1.5,1.5-1.5H60c0.8,0,1.5,0.7,1.5,1.5V62.8z M65.2,39.6c0,0.1,0,0.3,0,0.4l-3.3,13.2
		c-0.2,0.7-0.8,1.1-1.5,1.1l-19.8,0.1c0,0,0,0,0,0H20.7c-0.7,0-1.3-0.5-1.5-1.1l-3.3-13.3c0-0.2,0-0.3,0-0.5c-1.3-0.4-2.2-1.6-2.2-3
		c0-1.7,1.4-3.2,3.2-3.2c1.7,0,3.2,1.4,3.2,3.2c0,1-0.4,1.9-1.2,2.4l4.1,4.2c1,1.1,2.5,1.7,4,1.7c1.8,0,3.4-0.8,4.5-2.2l6.8-9
		c-0.6-0.6-0.9-1.4-0.9-2.2c0-1.7,1.4-3.2,3.2-3.2c1.7,0,3.2,1.4,3.2,3.2c0,0.8-0.3,1.6-0.9,2.2c0,0,0,0,0,0l6.8,9
		c1.1,1.4,2.7,2.3,4.5,2.3c1.5,0,2.9-0.6,4-1.6l4.2-4.2c-0.7-0.6-1.2-1.5-1.2-2.5c0-1.7,1.4-3.2,3.2-3.2c1.7,0,3.2,1.4,3.2,3.2
		C67.3,38,66.4,39.2,65.2,39.6z"/>
</g>
<g id="Layer_2" class="st1">
	<path class="st2" d="M75.5,21.5L43,2.7c-2.2-1.3-4.9-1.3-7,0L3.5,21.5C1.3,22.7,0,25,0,27.5V65c0,2.5,1.3,4.8,3.5,6.1L36,89.9
		c2.2,1.3,4.9,1.3,7,0l32.5-18.7c2.2-1.3,3.5-3.6,3.5-6.1V27.5C79,25,77.6,22.7,75.5,21.5z"/>
</g>
</svg>
